<?xml version="1.0" encoding="utf-8"?>
<!-- Generator: Adobe Illustrator 16.0.4, SVG Export Plug-In . SVG Version: 6.00 Build 0)  -->
<!DOCTYPE svg PUBLIC "-//W3C//DTD SVG 1.1//EN" "http://www.w3.org/Graphics/SVG/1.1/DTD/svg11.dtd">
<svg version="1.1" id="Layer_1" xmlns="http://www.w3.org/2000/svg" xmlns:xlink="http://www.w3.org/1999/xlink" x="0px" y="0px"
	 width="50px" height="50px" viewBox="0 0 50 50" enable-background="new 0 0 50 50" xml:space="preserve">
<path d="M46.027,25.141c0,10.001-6.988,18.354-16.344,20.486V28.158h5.053v-5.833h-5.105v-1.302c0-2.5,1.094-4.532,3.698-4.532
	c1.043,0,1.876,0.157,2.554,0.365l0.311-6.094c-1.094-0.312-2.446-0.522-4.217-0.522c-2.291,0-5.053,0.68-7.031,2.554
	c-2.293,2.084-3.23,5.469-3.23,8.541v0.989h-3.333v5.834h3.333v17.729C11.667,44.307,3.973,35.634,3.973,25.141
	c0-11.613,9.415-21.028,21.028-21.028C36.614,4.112,46.027,13.527,46.027,25.141z"/>
</svg>
