<?xml version="1.0" encoding="utf-8"?>
<!-- Generator: Adobe Illustrator 16.0.0, SVG Export Plug-In . SVG Version: 6.00 Build 0)  -->
<!DOCTYPE svg PUBLIC "-//W3C//DTD SVG 1.1//EN" "http://www.w3.org/Graphics/SVG/1.1/DTD/svg11.dtd">
<svg version="1.1" id="Layer_3" xmlns="http://www.w3.org/2000/svg" xmlns:xlink="http://www.w3.org/1999/xlink" x="0px" y="0px"
	 width="100px" height="100px" viewBox="0 0 100 100" enable-background="new 0 0 100 100" xml:space="preserve">
<path d="M50,1.125C23.008,1.125,1.125,23.007,1.125,50S23.008,98.875,50,98.875S98.875,76.993,98.875,50S76.992,1.125,50,1.125z
	 M8.864,63.296c-0.027,0.193-0.166,0.329-0.34,0.329c-0.175,0-0.315-0.136-0.339-0.331l-0.621-4.633l0.621-4.713
	c0.023-0.196,0.164-0.333,0.339-0.333c0.174,0,0.313,0.136,0.34,0.331L9.6,58.662L8.864,63.296z M12.018,66.116
	c-0.03,0.201-0.176,0.342-0.354,0.342c-0.18,0-0.328-0.144-0.353-0.343l-0.834-7.454l0.834-7.622
	c0.024-0.199,0.173-0.343,0.353-0.343c0.179,0,0.324,0.14,0.354,0.343l0.948,7.622L12.018,66.116z M15.423,67.377
	c-0.026,0.241-0.205,0.415-0.426,0.415c-0.224,0-0.402-0.174-0.425-0.417l-0.792-8.712c0,0,0.792-9.043,0.792-9.044
	c0.022-0.241,0.201-0.416,0.425-0.416c0.221,0,0.399,0.175,0.426,0.416l0.899,9.044L15.423,67.377z M18.857,67.654
	c-0.024,0.277-0.238,0.488-0.497,0.488c-0.264,0-0.479-0.211-0.5-0.488l-0.748-8.989l0.748-9.292c0.021-0.28,0.236-0.49,0.5-0.49
	c0.259,0,0.473,0.21,0.497,0.487l0.85,9.294L18.857,67.654z M22.318,67.728c-0.021,0.319-0.268,0.562-0.57,0.562
	c-0.305,0-0.551-0.243-0.571-0.562l-0.706-9.063l0.706-8.619c0.021-0.321,0.267-0.563,0.571-0.563c0.303,0,0.549,0.242,0.57,0.559
	l0.801,8.623L22.318,67.728z M25.807,67.732v-0.004c-0.021,0.356-0.302,0.636-0.643,0.636c-0.344,0-0.625-0.28-0.644-0.634
	l-0.661-9.062l0.661-14.024c0.019-0.357,0.3-0.636,0.644-0.636c0.341,0,0.622,0.279,0.643,0.635l0.75,14.025L25.807,67.732z
	 M29.27,67.725V67.72c-0.018,0.398-0.333,0.708-0.716,0.708c-0.384,0-0.698-0.31-0.713-0.706l-0.622-9.006
	c0,0,0.619-17.229,0.619-17.23c0.018-0.397,0.332-0.708,0.716-0.708c0.383,0,0.698,0.311,0.716,0.708l0.701,17.23L29.27,67.725z
	 M32.865,67.587v-0.005c-0.018,0.438-0.362,0.78-0.786,0.78c-0.427,0-0.773-0.342-0.788-0.776l-0.577-8.914
	c0,0,0.577-18.667,0.577-18.669c0.015-0.438,0.361-0.781,0.788-0.781c0.424,0,0.769,0.343,0.786,0.781l0.652,18.669L32.865,67.587z
	 M36.436,67.527c-0.014,0.478-0.393,0.853-0.859,0.853c-0.47,0-0.846-0.375-0.858-0.849l-0.536-8.858l0.534-19.297
	c0.015-0.479,0.391-0.855,0.86-0.855c0.467,0,0.846,0.375,0.859,0.855l0.603,19.298L36.436,67.527z M40.033,67.45v-0.007
	c-0.014,0.519-0.423,0.929-0.932,0.929c-0.511,0-0.92-0.41-0.931-0.924l-0.493-8.773l0.49-18.805
	c0.014-0.52,0.423-0.927,0.934-0.927c0.509,0,0.918,0.406,0.932,0.925l0.555,18.807L40.033,67.45z M43.659,67.395v-0.007
	c-0.011,0.561-0.453,1-1.005,1c-0.551,0-0.994-0.439-1.005-0.993L41.2,58.676l0.449-18.119c0.011-0.561,0.454-1,1.005-1
	c0.552,0,0.994,0.44,1.005,1l0.503,18.121L43.659,67.395z M47.357,66.478l-0.045,0.855c-0.005,0.295-0.13,0.564-0.324,0.758
	c-0.195,0.193-0.461,0.314-0.753,0.314c-0.329,0-0.625-0.152-0.824-0.39c-0.146-0.175-0.239-0.399-0.25-0.64
	c-0.002-0.012-0.003-0.024-0.003-0.037c0,0-0.408-8.654-0.408-8.667l0.404-21.352l0.004-0.203c0.005-0.377,0.202-0.708,0.497-0.899
	c0.167-0.11,0.365-0.175,0.58-0.175c0.218,0,0.424,0.068,0.595,0.184c0.285,0.193,0.476,0.519,0.482,0.889l0.452,21.563
	L47.357,66.478z M50.95,67.217v-0.002v-0.008c-0.012,0.631-0.525,1.146-1.15,1.146c-0.627,0-1.143-0.514-1.151-1.137l-0.232-4.209
	l-0.238-4.325l0.469-23.398l0.002-0.118c0.004-0.356,0.17-0.674,0.427-0.885c0.197-0.164,0.45-0.262,0.725-0.262
	c0.214,0,0.414,0.061,0.584,0.165c0.331,0.201,0.559,0.565,0.566,0.98l0.509,23.518L50.95,67.217z M81.997,68.375
	c0,0-28.909,0.003-28.937,0c-0.625-0.063-1.12-0.559-1.127-1.198c0,0,0-33.131,0-33.132c0.007-0.609,0.216-0.922,1.004-1.227
	c2.026-0.785,4.323-1.248,6.677-1.248c9.626,0,17.514,7.38,18.346,16.787c1.242-0.52,2.607-0.81,4.037-0.81
	c5.766,0,10.438,4.674,10.438,10.439S87.763,68.375,81.997,68.375z"/>
</svg>
